<svg width="49" height="39" viewBox="0 0 49 39" fill="none" xmlns="http://www.w3.org/2000/svg">
<path d="M13.088 33.32C10.7413 33.32 8.69333 32.8613 6.944 31.944C5.216 31.0053 3.88267 29.672 2.944 27.944C2.02667 26.216 1.568 24.1787 1.568 21.832C1.568 19.4853 2.02667 17.448 2.944 15.72C3.88267 13.9707 5.216 12.6267 6.944 11.688C8.672 10.7493 10.7093 10.28 13.056 10.28C14.976 10.28 16.7573 10.6107 18.4 11.272C20.0427 11.9333 21.28 12.8293 22.112 13.96C22.3467 14.3013 22.464 14.6107 22.464 14.888C22.464 15.3573 22.2187 15.7733 21.728 16.136C21.4507 16.3067 21.1627 16.392 20.864 16.392C20.5867 16.392 20.3093 16.328 20.032 16.2C19.776 16.072 19.552 15.9013 19.36 15.688C18.656 14.8347 17.7813 14.2053 16.736 13.8C15.712 13.3947 14.4853 13.192 13.056 13.192C10.6027 13.192 8.68267 13.96 7.296 15.496C5.93067 17.0107 5.248 19.1227 5.248 21.832C5.248 24.4987 5.94133 26.6 7.328 28.136C8.71467 29.6507 10.6347 30.408 13.088 30.408C15.9893 30.408 18.2187 29.576 19.776 27.912C20.288 27.4 20.8107 27.144 21.344 27.144C21.6853 27.144 21.9947 27.2507 22.272 27.464C22.6987 27.8267 22.912 28.2213 22.912 28.648C22.912 29.0107 22.784 29.352 22.528 29.672C21.6107 30.8027 20.32 31.6987 18.656 32.36C16.992 33 15.136 33.32 13.088 33.32Z" fill="white"/>
<path d="M28.2775 33.32C27.7228 33.32 27.2855 33.1707 26.9655 32.872C26.6455 32.5733 26.4855 32.1573 26.4855 31.624V11.976C26.4855 11.4427 26.6455 11.0267 26.9655 10.728C27.2855 10.4293 27.7228 10.28 28.2775 10.28C28.8322 10.28 29.2695 10.44 29.5895 10.76C29.9308 11.0587 30.1015 11.464 30.1015 11.976V20.072H42.4535V11.976C42.4535 11.464 42.6135 11.0587 42.9335 10.76C43.2748 10.44 43.7228 10.28 44.2775 10.28C44.8322 10.28 45.2695 10.4293 45.5895 10.728C45.9308 11.0267 46.1015 11.4427 46.1015 11.976V31.624C46.1015 32.1573 45.9308 32.5733 45.5895 32.872C45.2695 33.1707 44.8322 33.32 44.2775 33.32C43.7228 33.32 43.2748 33.1707 42.9335 32.872C42.6135 32.552 42.4535 32.136 42.4535 31.624V22.92H30.1015V31.624C30.1015 32.136 29.9308 32.552 29.5895 32.872C29.2695 33.1707 28.8322 33.32 28.2775 33.32Z" fill="#C770F0"/>
<path d="M15.0931 15.6291C15.3739 15.3592 15.8418 15.4998 15.9274 15.8798L16.6759 19.2056C16.7078 19.3474 16.7998 19.4683 16.9279 19.5368L19.9342 21.1441C20.2777 21.3278 20.2886 21.8163 19.9536 22.0151L17.0219 23.7547C16.8969 23.8288 16.8104 23.9537 16.7848 24.0967L16.1851 27.4526C16.1166 27.836 15.6554 27.9973 15.3628 27.7402L12.8024 25.4894C12.6932 25.3935 12.5478 25.3498 12.4038 25.3697L9.02689 25.8364C8.64105 25.8897 8.3451 25.5009 8.49928 25.1432L9.84861 22.0126C9.90613 21.8791 9.90274 21.7273 9.83934 21.5965L8.35196 18.5291C8.18201 18.1786 8.46035 17.777 8.84819 17.8131L12.2425 18.129C12.3872 18.1424 12.5306 18.0923 12.6354 17.9916L15.0931 15.6291Z" fill="#C770F0"/>
</svg>
